<svg width="950" height="150" viewBox="0 0 353 67" fill="none" xmlns="http://www.w3.org/2000/svg">
<path d="M15.9958 31V1L8.50903 15.9889L1 1V31" stroke="white" stroke-width="2" stroke-linecap="round" stroke-linejoin="round"/>
<path d="M66.1387 1H51.1428V31H66.1387" stroke="white" stroke-width="2" stroke-miterlimit="10" stroke-linecap="round" stroke-linejoin="round"/>
<path d="M58.6407 16.057H51.1428" stroke="white" stroke-width="2" stroke-miterlimit="10" stroke-linecap="round" stroke-linejoin="round"/>
<path d="M116.282 31V1L108.795 15.9889L101.286 1V31" stroke="white" stroke-width="2" stroke-linecap="round" stroke-linejoin="round"/>
<path d="M166.424 8.50555C166.424 4.36035 163.068 1 158.927 1C154.786 1 151.429 4.36035 151.429 8.50555V23.4944C151.429 27.6396 154.786 31 158.927 31C163.068 31 166.424 27.6396 166.424 23.4944V8.50555Z" stroke="white" stroke-width="2" stroke-linecap="round" stroke-linejoin="round"/>
<path d="M216.17 31L201.571 15.9945H208.86C209.852 16.0499 210.844 15.8972 211.777 15.5458C212.709 15.1943 213.562 14.6515 214.284 13.9504C215.005 13.2492 215.58 12.4046 215.972 11.468C216.365 10.5313 216.567 9.52241 216.567 8.50278C216.567 7.48314 216.365 6.47421 215.972 5.53759C215.58 4.60096 215.005 3.7563 214.284 3.05519C213.562 2.35408 212.709 1.81122 211.777 1.45977C210.844 1.10832 209.852 0.955659 208.86 1.0111H201.571" stroke="white" stroke-width="2" stroke-linecap="round" stroke-linejoin="round"/>
<path d="M251.714 31V1" stroke="white" stroke-width="2" stroke-linecap="round" stroke-linejoin="round"/>
<path d="M286.861 31L294.359 1L301.857 31" stroke="white" stroke-width="2" stroke-linecap="round" stroke-linejoin="round"/>
<path d="M352 31V1L344.502 15.9889L337.004 1V31" stroke="white" stroke-width="2" stroke-linecap="round" stroke-linejoin="round"/>
<path d="M55 65.9668L298 66" stroke="white" stroke-width="2" stroke-miterlimit="10" stroke-linecap="round" stroke-linejoin="round"/>
</svg>
